# AST/ASF file generated using VICON BodyLanguage
# -----------------------------------------------
:version 1.10
:name VICON
:units
  mass 1.0
  length 0.45
  angle deg
:documentation
   .ast/.asf automatically generated from VICON data using
   VICON BodyBuilder and BodyLanguage model FoxedUp or BRILLIANT.MOD
:root
   order TX TY TZ RX RY RZ
   axis XYZ
   position 0 0 0  
   orientation 0 0 0 
:bonedata
  begin
     id 1 
     name lhipjoint
     direction 0.624716 -0.669793 0.401383 
     length 2.38238 
     axis 0 0 0  XYZ
  end
  begin
     id 2 
     name lfemur
     direction 0.34202 -0.939693 0  
     length 6.4574  
     axis 0 0 20  XYZ
    dof rx ry rz
    limits (-160.0 20.0)
           (-70.0 70.0)
           (-60.0 70.0)
  end
  begin
     id 3 
     name ltibia
     direction 0.34202 -0.939693 0   
     length 7.68739   
     axis 0 0 20   XYZ
    dof rx
    limits (-10.0 170.0)
  end
  begin
     id 4 
     name lfoot
     direction 0.0681309 -0.187188 0.979959   
     length 2.46615   
     axis -90 7.62852e-016 20   XYZ
    dof rx rz
    limits (-45.0 90.0)
           (-70.0 20.0)
  end
  begin
     id 5 
     name ltoes
     direction 1.53566e-011 -4.21819e-011 1   
     length 1.2376   
     axis -90 7.62852e-016 20   XYZ
    dof rx
    limits (-90.0 20.0)
  end
  begin
     id 6 
     name rhipjoint
     direction -0.644473 -0.655875 0.393043   
     length 2.43293  
     axis 0 0 0  XYZ 
  end
  begin
     id 7 
     name rfemur
     direction -0.34202 -0.939693 0   
     length 6.7025   
     axis 0 0 -20   XYZ
    dof rx ry rz
    limits (-160.0 20.0)
           (-70.0 70.0)
           (-70.0 60.0)
  end
  begin
     id 8 
     name rtibia
     direction -0.34202 -0.939693 0   
     length 7.80547   
     axis 0 0 -20   XYZ
    dof rx
    limits (-10.0 170.0)
 end
 begin
     id 9 
     name rfoot
     direction -0.0756734 -0.207911 0.975216   
     length 2.40315  
     axis -90 -7.62852e-016 -20   XYZ
    dof rx rz
    limits (-45.0 90.0)
           (-20.0 70.0)
  end
  begin
     id 10 
     name rtoes
     direction -1.5353e-011 -4.21879e-011 1   
     length 1.20477   
     axis -90 -7.62852e-016 -20   XYZ
    dof rx
    limits (-90.0 20.0)
  end
  begin
     id 11 
     name lowerback
     direction 0.0160353 0.987463 -0.157037   
     length 2.18572   
     axis 0 0 0   XYZ
    dof rx ry rz
    limits (-20.0 45.0)
           (-30.0 30.0)
           (-30.0 30.0)
  end
  begin
     id 12 
     name upperback
     direction -0.00499661 0.999756 0.0215076   
     length 2.18016   
     axis 0 0 0   XYZ
    dof rx ry rz
    limits (-20.0 45.0)
           (-30.0 30.0)
           (-30.0 30.0)
  end
  begin
     id 13 
     name thorax
     direction -0.00921346 0.995333 0.0960619   
     length 2.24923   
     axis 0 0 0   XYZ
    dof rx ry rz
    limits (-20.0 45.0)
           (-30.0 30.0)
           (-30.0 30.0)
  end
  begin
     id 14 
     name lowerneck
     direction 0.0274184 0.991181 0.12965   
     length 1.70911   
     axis 0 0 0   XYZ
    dof rx ry rz
    limits (-20.0 45.0)
           (-30.0 30.0)
           (-30.0 30.0)
  end
  begin
     id 15 
     name upperneck
     direction 0.0015627 0.999959 -0.00893559   
     length 1.69312   
     axis 0 0 0   XYZ
    dof rx ry rz
    limits (-20.0 45.0)
           (-30.0 30.0)
           (-30.0 30.0)
  end
  begin
     id 16
     name head
     direction -0.00230242 0.999856 -0.0168327  
     length 1.80241  
     axis 0 0 0   XYZ
    dof rx ry rz
    limits (-20.0 45.0)
           (-30.0 30.0)
           (-30.0 30.0)
  end
  begin
     id 17 
     name lclavicle
     direction 0.955523 0.290741 -0.0494489  
     length 3.84275  
     axis 0 0 0   XYZ
    dof ry rz
    limits (-20.0 10.0)
           (0.0 20.0)
  end
  begin
     id 18 
     name lhumerus
     direction 1 -4.48967e-011 -3.18382e-028   
     length 5.17714   
     axis 180 -30 -90   XYZ
    dof rx ry rz
    limits (-60.0 90.0)
           (-90.0 90.0)
           (-90.0 90.0)
  end
  begin
     id 19
     name lradius
     direction 1 -4.48968e-011 -2.22911e-027   
     length 3.43679   
     axis 180 -30 -90   XYZ
    dof rx
    limits (-10.0 170.0)
  end
  begin
     id 20
     name lwrist
     direction 1 -4.48951e-011 -6.32245e-027   
     length 1.7184   
     axis 3.57107e-015 90 90   XYZ
    dof ry
    limits (-180.0 0.0)
 end
  begin
     id 21 
     name lhand
     direction 1 -4.48924e-011 -1.26431e-026   
     length 0.573117   
     axis 8.06912e-015 90 90   XYZ
    dof rx rz
    limits (-90.0 90.0)
           (-45.0 45.0)
  end
  begin
     id 22 
     name lfingers
     direction 1 -4.49001e-011 -2.52965e-026   
     length 0.462062   
     axis 1.61381e-014 90 90   XYZ
    dof rx
    limits (0.0 90.0)
  end
  begin
     id 23
     name lthumb
     direction 0.707107 -6.35008e-011 0.707107   
     length 0.663431   
     axis -90 45 -1.62303e-014   XYZ
    dof rx rz
    limits (-45.0 45.0)
           (-45.0 45.0)
  end
  begin
     id 24 
     name rclavicle
     direction -0.963917 0.256881 -0.0698287   
     length 3.73057  
     axis 0 0 0   XYZ 
    dof ry rz
    limits (-10.0 20.0)
           (-20.0 0.0)
  end
  begin
     id 25 
     name rhumerus
     direction -1 -4.48962e-011 -2.73982e-027  
     length 5.23908   
     axis 180 30 90   XYZ
    dof rx ry rz
    limits (-90.0 60.0)
           (-90.0 90.0)
           (-90.0 90.0)
  end
  begin
     id 26 
     name rradius
     direction -1 -4.48968e-011 -4.33218e-027   
     length 3.46485   
     axis 180 30 90   XYZ
    dof rx
    limits (-10.0 170.0)
  end
  begin
     id 27 
     name rwrist
     direction -1 -4.48989e-011 -6.32372e-027   
     length 1.73243   
     axis 3.57107e-015 -90 -90   XYZ
    dof ry
    limits (-180.0 0.0)
  end
  begin
     id 28
     name rhand
     direction -1 -4.48948e-011 -1.26448e-026   
     length 0.608752   
     axis 8.06912e-015 -90 -90   XYZ
    dof rx rz
    limits (-90.0 90.0)
           (-45.0 45.0)
  end
  begin
     id 29
     name rfingers
     direction -1 -4.48962e-011 -2.52913e-026   
     length 0.490792   
     axis 1.61381e-014 -90 -90   XYZ
    dof rx
    limits (0.0 90.0)
  end
  begin
     id 30
     name rthumb
     direction -0.707107 -6.34878e-011 0.707107   
     length 0.704682   
     axis -90 -45 1.62303e-014   XYZ
    dof rx rz
    limits (-45.0 45.0)
           (-45.0 45.0)
  end
:hierarchy
  begin
    root lhipjoint rhipjoint lowerback
    lhipjoint lfemur
    lfemur ltibia
    ltibia lfoot
    lfoot ltoes
    rhipjoint rfemur
    rfemur rtibia
    rtibia rfoot
    rfoot rtoes
    lowerback upperback
    upperback thorax
    thorax lowerneck lclavicle rclavicle
    lowerneck upperneck
    upperneck head
    lclavicle lhumerus
    lhumerus lradius
    lradius lwrist
    lwrist lhand lthumb
    lhand lfingers
    rclavicle rhumerus
    rhumerus rradius
    rradius rwrist
    rwrist rhand rthumb
    rhand rfingers
  end

#!OML:ASF G:\JayActor3\Patient Classification 1\Patient 1\Session 6\male.ASF
:FULLY-SPECIFIED
:DEGREES
1
root 49.6739 15.9835 17.3045 173.763 -58.3153 -170.472
lowerback -4.68991 -0.682357 5.17126
upperback 0.734662 -1.26642 0.927828
thorax 3.30334 -0.550168 -2.03584
lowerneck -1.67119 -3.41508 0.595154
upperneck -0.461389 -4.62584 4.22885
head 0.225406 -2.32222 1.16062
rclavicle 6.75868e-015 3.57812e-015
rhumerus -34.659 -7.90858 -84.9056
rradius 29.3888
rwrist -0.620845
rhand -20.7857 -6.01735
rfingers 7.12502
rthumb 5.58124 -35.9238
lclavicle 6.75868e-015 3.57812e-015
lhumerus -31.064 6.11947 84.1918
lradius 24.1944
lwrist 19.7494
lhand -18.5989 9.5687
lfingers 7.12502
lthumb 7.69226 39.4088
rfemur -14.9229 0.336746 27.4478
rtibia 35.8304
rfoot -24.0212 -14.0441
rtoes 1.72234
lfemur -9.49202 8.84483 -17.1525
ltibia 29.4171
lfoot -21.4371 6.13126
ltoes 1.63687
2
root 49.6759 15.9832 17.304 174.687 -58.3981 -171.745
lowerback -4.48758 -0.752845 4.44145
upperback 0.752953 -1.29589 0.782216
thorax 3.21656 -0.576386 -1.77645
lowerneck -1.50485 -3.40662 0.594695
upperneck -0.641009 -4.60241 4.12386
head 0.13976 -2.31501 1.13331
rclavicle -1.8897e-014 8.74653e-015
rhumerus -34.662 -7.78122 -84.8882
rradius 29.3546
rwrist -0.590137
rhand -20.7725 -5.91844
rfingers 7.12502
rthumb 5.59396 -35.8246
lclavicle -1.8897e-014 8.74653e-015
lhumerus -31.1291 6.26114 84.1829
lradius 24.1473
lwrist 19.7264
lhand -18.5649 9.59159
lfingers 7.12502
lthumb 7.7251 39.4305
rfemur -14.9774 0.348817 26.7171
rtibia 36.2701
rfoot -24.2778 -13.9425
rtoes 1.88693
lfemur -9.00843 8.91785 -17.8834
ltibia 28.7913
lfoot -21.0804 6.32077
ltoes 0.756296
3
root 49.679 15.9834 17.304 175.611 -58.4887 -173.014
lowerback -4.27798 -0.746566 3.76425
upperback 0.789368 -1.22712 0.556727
thorax 3.14788 -0.550985 -1.62175
lowerneck -1.47887 -3.42693 0.645547
upperneck -0.750189 -4.62854 4.20592
head 0.103496 -2.33134 1.15185
rclavicle -3.82971e-015 -8.24956e-015
rhumerus -34.6923 -7.86841 -84.9342
rradius 29.4052
rwrist -0.627276
rhand -20.7954 -6.04743
rfingers 7.12502
rthumb 5.57189 -35.9542
lclavicle -3.82971e-015 -8.24956e-015
lhumerus -31.1199 6.11417 84.177
lradius 24.1129
lwrist 19.7461
lhand -18.5968 9.61157
lfingers 7.12502
lthumb 7.69432 39.4516
rfemur -15.0319 0.315495 25.9878
rtibia 36.6948
rfoot -24.5183 -13.8437
rtoes 2.00167
lfemur -8.51417 8.87937 -18.6061
ltibia 28.158
lfoot -20.7953 6.42008
ltoes 0.64359
4
root 49.6827 15.9824 17.3028 176.454 -58.5733 -174.207
lowerback -4.05046 -0.804921 3.05779
upperback 0.817872 -1.25043 0.415592
thorax 3.05833 -0.573849 -1.36917
lowerneck -1.48559 -3.41228 0.617426
upperneck -0.704538 -4.60935 4.18189
head 0.118253 -2.32042 1.14857
rclavicle 4.21206e-014 7.35503e-015
rhumerus -34.7021 -7.78018 -84.9292
rradius 29.4048
rwrist -0.622124
rhand -20.799 -5.92077
rfingers 7.12502
rthumb 5.56841 -35.8276
lclavicle 4.21206e-014 7.35503e-015
lhumerus -31.1489 6.22948 84.1567
lradius 24.0545
lwrist 19.7112
lhand -18.5299 9.67073
lfingers 7.12502
lthumb 7.75895 39.5084
rfemur -15.0686 0.336257 25.3144
rtibia 37.1131
rfoot -24.7567 -13.8204
rtoes 2.05037
lfemur -7.99877 8.81807 -19.2677
ltibia 27.5149
lfoot -20.5094 6.44836
ltoes 0.712251
5
root 49.6862 15.9814 17.3022 177.328 -58.6509 -175.431
lowerback -3.8235 -0.840037 2.36439
upperback 0.847806 -1.24722 0.247304
thorax 2.97146 -0.582868 -1.14986
lowerneck -1.46782 -3.4122 0.623677
upperneck -0.727054 -4.60812 4.17517
head 0.108091 -2.32041 1.14604
rclavicle -1.14935e-013 1.49089e-015
rhumerus -34.7157 -7.75404 -84.9352
rradius 29.4135
rwrist -0.616308
rhand -20.7943 -5.89262
rfingers 7.12502
rthumb 5.57299 -35.7993
lclavicle -1.14935e-013 1.49089e-015
lhumerus -31.1669 6.26062 84.1438
lradius 23.9995
lwrist 19.6811
lhand -18.5096 9.67524
lfingers 7.12502
lthumb 7.77852 39.5122
rfemur -15.1036 0.329355 24.6203
rtibia 37.5238
rfoot -24.9881 -13.7579
rtoes 2.12471
lfemur -7.488 8.79796 -19.9486
ltibia 26.8628
lfoot -20.1934 6.51639
ltoes 0.547162
